<?xml version="1.0" encoding="UTF-8"?>
<svg version="1.1" xmlns="http://www.w3.org/2000/svg" width="1190" height="1190">
<path d="M0 0 C392.7 0 785.4 0 1190 0 C1190 392.7 1190 785.4 1190 1190 C797.3 1190 404.6 1190 0 1190 C0 797.3 0 404.6 0 0 Z " fill="#FEFEFE" transform="translate(0,0)"/>
<path d="M0 0 C1.7325 0.29003906 1.7325 0.29003906 3.5 0.5859375 C12.4863232 2.2178877 20.94352806 5.6752755 26.63671875 13.1484375 C31.25819486 22.650841 30.3592085 37.24400086 27 47 C26.71640625 47.84820312 26.4328125 48.69640625 26.140625 49.5703125 C19.97399468 65.96997428 9.04346129 80.56820907 -2 94 C-2.60119659 94.73139694 -2.60119659 94.73139694 -3.21453857 95.47756958 C-10.77721868 104.62289845 -18.85401595 113.14087637 -27.28320312 121.48901367 C-29.26761113 123.45494718 -31.2436814 125.4289848 -33.21875 127.40429688 C-39.30768853 133.47654555 -45.39545471 139.48318366 -52 145 C-53.1647366 145.99660856 -54.3288049 146.9939987 -55.4921875 147.9921875 C-56.61965872 148.95328098 -57.74726452 149.91421661 -58.875 150.875 C-63.07793718 154.46169382 -67.23077913 158.08737253 -71.3125 161.8125 C-74.98182448 165.14661703 -78.78409632 168.19350492 -82.7265625 171.1953125 C-86.09328259 173.8678635 -89.22565126 176.78194155 -92.3984375 179.6796875 C-95.03969476 182.03540343 -97.74794947 184.27510281 -100.5 186.5 C-104.0947765 189.4081338 -107.58260628 192.38541332 -111 195.5 C-115.19244449 199.3172964 -119.5273093 202.90626101 -123.93359375 206.47265625 C-129.44677367 211.01664021 -134.80854389 215.73650753 -140.19335938 220.43115234 C-143.11602373 222.96913088 -146.05713117 225.48550209 -149 228 C-147.24161037 232.8746468 -144.75366701 237.29265669 -142.25 241.8125 C-141.76901855 242.68414795 -141.28803711 243.5557959 -140.79248047 244.45385742 C-136.42780424 252.31735699 -131.90203976 260.08336689 -127.34814453 267.83837891 C-123.19837062 274.9135335 -119.13952589 282.0348464 -115.125 289.1875 C-111.19206429 296.19144652 -107.19815087 303.11612532 -102.87890625 309.890625 C-100.66243407 313.55863302 -98.63109289 317.31004062 -96.59057617 321.078125 C-94.07095526 325.70664734 -91.47307263 330.29018946 -88.875 334.875 C-88.31151855 335.87039795 -87.74803711 336.8657959 -87.16748047 337.89135742 C-78.40476874 353.35907557 -69.55776937 368.77684494 -60.65917969 384.16674805 C-55.81390023 392.55870723 -51.03152691 400.98481699 -46.29907227 409.44091797 C-43.66258285 414.13499764 -40.96064063 418.73584698 -37.98486328 423.22412109 C-36.12576456 426.57639777 -35.8020175 429.96489524 -35.6875 433.75 C-35.63142578 434.94882812 -35.63142578 434.94882812 -35.57421875 436.171875 C-36.81781353 444.43208251 -42.25345096 449.90443948 -48 455.5625 C-49.06734375 456.66561523 -49.06734375 456.66561523 -50.15625 457.79101562 C-50.8471875 458.48001953 -51.538125 459.16902344 -52.25 459.87890625 C-53.18585938 460.81585327 -53.18585938 460.81585327 -54.140625 461.77172852 C-56 463 -56 463 -58.09204102 462.76611328 C-67.31460639 459.0629258 -75.67480414 452.62125462 -83.88378906 447.10522461 C-92.27748071 441.46539371 -100.7276176 435.91474174 -109.1875 430.375 C-117.79142467 424.73883549 -126.3910269 419.09811921 -134.9375 413.375 C-145.07536858 406.58824697 -155.3130937 399.9566963 -165.625 393.4375 C-170.2711397 390.48965208 -174.84812625 387.44398386 -179.41870117 384.38110352 C-184.62791051 380.89788694 -189.86860169 377.46444435 -195.11743164 374.04125977 C-197.89809728 372.22694649 -200.676202 370.40879963 -203.45320129 368.58888245 C-204.01134018 368.22310593 -204.56947906 367.85732941 -205.14453125 367.48046875 C-205.70544968 367.11279892 -206.2663681 366.74512909 -206.84428406 366.36631775 C-210.31128067 364.09664334 -213.78934863 361.84513453 -217.2759552 359.60571289 C-218.98028169 358.50851947 -220.68045936 357.40521101 -222.37915039 356.29931641 C-224.50793428 354.9142859 -226.64366036 353.53985507 -228.78686523 352.17724609 C-229.73634033 351.55543457 -230.68581543 350.93362305 -231.6640625 350.29296875 C-232.50404785 349.7518042 -233.3440332 349.21063965 -234.20947266 348.65307617 C-234.80034668 348.10756104 -235.3912207 347.5620459 -236 347 C-236 342.82740729 -235.75427639 342.14079341 -233.53515625 338.89453125 C-232.71821289 337.68458496 -232.71821289 337.68458496 -231.88476562 336.45019531 C-231.28341797 335.57975586 -230.68207031 334.70931641 -230.0625 333.8125 C-229.1353418 332.44689941 -229.1353418 332.44689941 -228.18945312 331.05371094 C-226.84795252 329.08009311 -225.50222839 327.10934109 -224.15283203 325.14111328 C-221.92494886 321.89049581 -219.70873723 318.63208947 -217.49609375 315.37109375 C-214.60664189 311.11371169 -211.71176176 306.86008409 -208.8125 302.609375 C-205.50948816 297.76076543 -202.24152011 292.88990675 -199 288 C-199.77214844 287.71511719 -200.54429687 287.43023438 -201.33984375 287.13671875 C-204 286 -204 286 -206.5625 283.8125 C-208.74549056 281.77684036 -208.74549056 281.77684036 -210.8671875 282.13671875 C-213.6786332 283.27468487 -215.36317338 284.91299484 -217.5625 287 C-221.11795875 290.29963279 -224.72256855 293.4566226 -228.5 296.5 C-232.11846958 299.42632913 -235.62469684 302.42597536 -239.0625 305.5625 C-243.07661309 309.22149408 -247.23892593 312.61257035 -251.50390625 315.97265625 C-254.93372356 318.75837641 -258.17030209 321.73753696 -261.43359375 324.71484375 C-264.06404749 327.05702858 -266.76155847 329.28536726 -269.5 331.5 C-273.0947765 334.4081338 -276.58260628 337.38541332 -280 340.5 C-284.3227825 344.43914412 -288.80236174 348.13809639 -293.34765625 351.81640625 C-295.78683663 353.8245091 -298.15213041 355.88649885 -300.5 358 C-317.79026141 373.47659763 -336.68727176 387.17764732 -356 400 C-357.20390381 400.8058252 -357.20390381 400.8058252 -358.43212891 401.62792969 C-370.22547098 409.50886619 -382.28178222 416.76065551 -394.65966797 423.68359375 C-396.7633652 424.86689601 -398.85530147 426.06728067 -400.94140625 427.28125 C-410.98896314 433.12792418 -421.18229307 438.69209209 -432.0625 442.84375 C-434.50115959 443.80364793 -436.90584555 444.80760889 -439.3125 445.84375 C-447.9805514 449.57200112 -456.60698435 453.04586819 -465.60546875 455.89453125 C-467.946413 456.65688709 -470.2608366 457.50405692 -472.546875 458.41796875 C-478.5504922 460.69515321 -484.82427071 462.02733473 -491.0625 463.5 C-492.37020797 463.81132117 -493.6779065 464.12268203 -494.9855957 464.43408203 C-512.12780403 468.48593554 -528.09649388 471.1786378 -545.75 471.1875 C-547.0184375 471.19974609 -548.286875 471.21199219 -549.59375 471.22460938 C-558.23312389 471.23783291 -566.48854559 470.459989 -575 469 C-575.73089844 468.87955322 -576.46179688 468.75910645 -577.21484375 468.63500977 C-595.41446326 465.48030992 -610.93792241 457.01567589 -624 444 C-624.61230469 443.41089844 -625.22460938 442.82179688 -625.85546875 442.21484375 C-634.38450203 433.33450017 -640.64315491 420.74895782 -644 409 C-644.44472656 407.61361328 -644.44472656 407.61361328 -644.8984375 406.19921875 C-657.66840534 359.16121794 -633.84546573 305.31375953 -611.10961914 265.19458008 C-603.46544044 251.94287719 -594.96851235 239.38618074 -586 227 C-585.54254395 226.36642578 -585.08508789 225.73285156 -584.61376953 225.08007812 C-578.37802311 216.48916743 -571.66677645 208.25732717 -565 200 C-561.89978679 201.52360906 -558.94837771 203.19821362 -556 205 C-556.63970833 208.3986928 -557.94372814 210.73177332 -559.84375 213.60546875 C-560.42656738 214.49862793 -561.00938477 215.39178711 -561.60986328 216.31201172 C-562.2336084 217.26092285 -562.85735352 218.20983398 -563.5 219.1875 C-569.17234092 227.94806727 -574.39164726 236.80092119 -579.06347656 246.13232422 C-579.70664326 247.41496897 -580.36023257 248.69242412 -581.02246094 249.96533203 C-583.39904886 254.57798116 -585.31383317 259.2202568 -587 264.125 C-587.25418701 264.85565674 -587.50837402 265.58631348 -587.77026367 266.33911133 C-592.40957272 279.85247312 -595.19948985 292.22527896 -595.3125 306.5625 C-595.34150391 307.76197266 -595.37050781 308.96144531 -595.40039062 310.19726562 C-595.50377377 324.93334017 -591.00677434 338.97686009 -580.75 349.8125 C-564.13428376 365.32050182 -543.89627659 365.57982754 -522.39697266 365.13623047 C-516.0130917 364.88021454 -510.15371265 363.739394 -504 362 C-502.51103888 361.61865602 -501.02141037 361.23991173 -499.53125 360.86328125 C-490.68275813 358.57555961 -482.33432435 355.7802114 -474 352 C-472.53197916 351.36679641 -471.06316147 350.73543851 -469.59375 350.10546875 C-448.77168175 341.08445232 -429.61160336 329.94977014 -411 317 C-410.32469238 316.53319824 -409.64938477 316.06639648 -408.95361328 315.58544922 C-389.05648844 301.79388455 -370.03366702 286.21584527 -353 269 C-354.02867187 268.64228516 -354.02867187 268.64228516 -355.078125 268.27734375 C-358.58196277 266.74558579 -361.61221164 264.71845756 -364.75 262.5625 C-366.10216602 261.64740444 -367.45505657 260.73337873 -368.80859375 259.8203125 C-369.50452637 259.35012695 -370.20045898 258.87994141 -370.91748047 258.39550781 C-374.18997303 256.20259252 -377.5000069 254.06931844 -380.8125 251.9375 C-388.26698181 247.13014142 -395.70033905 242.29075426 -403.125 237.4375 C-403.69093872 237.06758942 -404.25687744 236.69767883 -404.83996582 236.31655884 C-411.85176711 231.73181327 -418.84437189 227.12081673 -425.80444336 222.45800781 C-432.40845232 218.04220406 -439.09103777 213.74837946 -445.76660156 209.44189453 C-458.6525724 201.12263964 -471.48710666 192.7247126 -484.3125 184.3125 C-484.97992218 183.87496399 -485.64734436 183.43742798 -486.33499146 182.9866333 C-494.21426157 177.82041946 -502.07276608 172.62490883 -509.90736389 167.39118958 C-514.16194052 164.55156947 -518.44031607 161.75492075 -522.75 159 C-529.81645479 154.45854834 -536.80387297 149.802298 -543.78329468 145.12884521 C-552.39366398 139.36339356 -561.01681254 133.64352781 -569.83789062 128.20288086 C-575.65796906 124.61241985 -581.33204686 120.82442246 -587 117 C-589.51865631 115.30923535 -592.0399584 113.62246167 -594.5625 111.9375 C-595.52470459 111.29445923 -595.52470459 111.29445923 -596.50634766 110.63842773 C-600.12039412 108.23014262 -603.75875348 105.87138295 -607.4375 103.5625 C-614.77715141 98.93629547 -621.87323788 93.94491776 -629 89 C-627.75087524 85.25262573 -626.2061277 84.31022558 -623.125 81.875 C-620.11612426 79.49119393 -617.13307001 77.1166486 -614.24609375 74.5859375 C-602.17992437 64.08292544 -591.29451411 61.721323 -575.61474609 62.69458008 C-565.78829386 63.84237576 -556.20611788 67.85825004 -546.86981201 71.012146 C-542.85562317 72.36785358 -538.8380226 73.71336391 -534.8203125 75.05859375 C-533.65128891 75.45023712 -533.65128891 75.45023712 -532.45864868 75.84979248 C-526.78152525 77.74806378 -521.09027895 79.59454509 -515.375 81.375 C-507.48538872 83.83488212 -499.64507988 86.42509581 -491.81103516 89.05615234 C-485.8339543 91.06304783 -479.85506107 93.06450563 -473.875 95.0625 C-473.21973328 95.28153992 -472.56446655 95.50057983 -471.88934326 95.72625732 C-464.55127113 98.17743488 -457.2086939 100.60408461 -449.8125 102.875 C-444.76056812 104.42650925 -439.8045113 106.13013166 -434.85571289 107.98168945 C-431.94509548 109.01957825 -429.01878947 109.92643587 -426.05859375 110.8125 C-417.67792197 113.37084766 -409.43002881 116.28647566 -401.16796875 119.20117188 C-394.68516208 121.46351056 -388.20347442 123.55941784 -381.60546875 125.453125 C-373.84720593 127.68567675 -366.26605342 130.29529134 -358.67843628 133.04656982 C-348.00459256 136.91030574 -337.31873532 140.63149509 -326.4375 143.875 C-315.01652911 147.28044907 -303.76487786 151.11446615 -292.5 155 C-281.50475663 158.79109745 -270.52421067 162.55600713 -259.375 165.875 C-244.6178672 170.2710077 -230.08906734 175.35955666 -215.53076172 180.36669922 C-203.5198035 184.50293393 -203.5198035 184.50293393 -191.45703125 188.484375 C-190.52479736 188.78569336 -189.59256348 189.08701172 -188.63208008 189.39746094 C-185.62793696 190.08517314 -183.07218757 190.2498442 -180 190 C-177.78423462 188.3801193 -176.03167339 186.91703575 -174.125 185 C-173.62742187 184.52304687 -173.12984375 184.04609375 -172.6171875 183.5546875 C-171.39862545 182.38299322 -170.19748675 181.19322523 -169 180 C-171.84947746 177.04474148 -174.83966656 174.47684594 -178.0625 171.9375 C-191.53828601 160.93466408 -201.99134819 148.89134856 -209.5 133.1875 C-209.82637451 132.50671387 -210.15274902 131.82592773 -210.48901367 131.12451172 C-214.1306995 123.10834408 -215.32771251 115.44709182 -215.1875 106.6875 C-215.18685547 105.90310547 -215.18621094 105.11871094 -215.18554688 104.31054688 C-215.13275958 97.40714229 -215.13275958 97.40714229 -214 94 C-211.84765625 91.95703125 -211.84765625 91.95703125 -209.0625 89.8125 C-205.25838565 86.81338533 -201.57133458 83.77324566 -198 80.5 C-194.60401318 77.40444804 -191.13828469 74.44848793 -187.5625 71.5625 C-182.72694083 67.64897542 -178.12012952 63.53496401 -173.5390625 59.328125 C-170.81194356 56.82756671 -168.05263147 54.37303287 -165.25390625 51.953125 C-163.50100741 50.43414853 -161.76144048 48.89978156 -160.02734375 47.359375 C-116.39250815 8.88903341 -58.34310725 -13.22608575 0 0 Z " fill="#010101" transform="translate(907,367)"/>
<path d="M0 0 C0 3 0 3 -1.57421875 4.97265625 C-2.62029297 6.00712891 -2.62029297 6.00712891 -3.6875 7.0625 C-4.37199219 7.75472656 -5.05648437 8.44695312 -5.76171875 9.16015625 C-8.09475633 11.07788871 -10.15419589 12.03810824 -13 13 C-9.57338216 8.28840047 -5.40481284 4.74963472 -1 1 C-0.67 0.67 -0.34 0.34 0 0 Z " fill="#282828" transform="translate(745,416)"/>
<path d="M0 0 C0.66 0.33 1.32 0.66 2 1 C-0.31 3.64 -2.62 6.28 -5 9 C-5.99 8.34 -6.98 7.68 -8 7 C-5.36 4.69 -2.72 2.38 0 0 Z " fill="#D9D9D9" transform="translate(605,725)"/>
<path d="M0 0 C0.66 0.66 1.32 1.32 2 2 C-0.97 4.31 -3.94 6.62 -7 9 C-7.66 8.67 -8.32 8.34 -9 8 C-6.03 5.36 -3.06 2.72 0 0 Z " fill="#DADADA" transform="translate(653,684)"/>
<path d="M0 0 C0.66 0.33 1.32 0.66 2 1 C-0.31 3.31 -2.62 5.62 -5 8 C-5.99 7.67 -6.98 7.34 -8 7 C-5.36 4.69 -2.72 2.38 0 0 Z " fill="#333333" transform="translate(758,405)"/>
</svg>
