<svg xmlns="http://www.w3.org/2000/svg" viewBox="0 0 120 120" fill="none" stroke="currentColor" stroke-width="1.25" stroke-linecap="round" stroke-linejoin="round">
  <g transform="translate(60 60)">
    <path d="M0 -8 C-14 -18 -22 -36 -14 -48 C-4 -56 6 -46 4 -30 C2 -18 0 -10 0 -8 Z" />
    <path d="M0 -8 C-18 -6 -38 -4 -44 -18 C-46 -32 -34 -38 -22 -30 C-10 -22 -2 -12 0 -8 Z" transform="rotate(72)" />
    <path d="M0 -8 C-18 -6 -38 -4 -44 -18 C-46 -32 -34 -38 -22 -30 C-10 -22 -2 -12 0 -8 Z" transform="rotate(144)" />
    <path d="M0 -8 C-18 -6 -38 -4 -44 -18 C-46 -32 -34 -38 -22 -30 C-10 -22 -2 -12 0 -8 Z" transform="rotate(216)" />
    <path d="M0 -8 C-18 -6 -38 -4 -44 -18 C-46 -32 -34 -38 -22 -30 C-10 -22 -2 -12 0 -8 Z" transform="rotate(288)" />
    <circle r="5" />
    <circle r="1.5" fill="currentColor" />
  </g>
</svg>
