<svg xmlns="http://www.w3.org/2000/svg" viewBox="0 0 120 120" fill="none" stroke="currentColor" stroke-width="1.25" stroke-linecap="round" stroke-linejoin="round">
  <path d="M60 108 C60 82 60 56 60 30" />
  <path d="M60 70 C42 68 30 56 26 40 C44 40 56 50 60 68" />
  <path d="M60 70 C78 68 90 56 94 40 C76 40 64 50 60 68" />
  <path d="M60 48 C46 46 36 36 32 22 C48 24 58 32 60 46" />
  <path d="M60 48 C74 46 84 36 88 22 C72 24 62 32 60 46" />
  <path d="M60 30 C54 22 52 16 54 10 C60 14 62 20 60 28" />
  <path d="M60 30 C66 22 68 16 66 10 C60 14 58 20 60 28" />
</svg>
