<svg version="1.1" xmlns="http://www.w3.org/2000/svg" viewBox="0 0 1190 1190">
  <path d="M0 0 C392.7 0 785.4 0 1190 0 C1190 392.7 1190 785.4 1190 1190 C797.3 1190 404.6 1190 0 1190 C0 797.3 0 404.6 0 0 Z " fill="transparent" />
  <path d="M907 367 C908.7325 367.29003906 908.7325 367.29003906 910.5 367.5859375 C919.4863232 369.2178877 927.94352806 372.6752755 933.63671875 380.1484375 C938.25819486 389.650841 937.3592085 404.24400086 934 414 C933.71640625 414.84820312 933.4328125 415.69640625 933.140625 416.5703125 C926.97399468 432.96997428 916.04346129 447.56820907 905 461 C904.39880341 461.73139694 904.39880341 461.73139694 903.78546143 462.47756958 C896.22278132 471.62289845 888.14598405 480.14087637 879.71679688 488.48901367 C877.73238887 490.45494718 875.7563186 492.4289848 873.78125 494.40429688 C867.69231147 500.47654555 861.60454529 506.48318366 855 512 C853.8352634 512.99660856 852.6711951 513.9939987 851.5078125 514.9921875 C850.38034128 515.95328098 849.25273548 516.91421661 848.125 517.875 C843.92206282 521.46169382 839.76922087 525.08737253 835.6875 528.8125 C832.01817552 532.14661703 828.21590368 535.19350492 824.2734375 538.1953125 C820.90671741 540.8678635 817.77434874 543.78194155 814.6015625 546.6796875 C811.96030524 549.03540343 809.25205053 551.27510281 806.5 553.5 C802.9052235 556.4081338 799.41739372 559.38541332 796 562.5 C791.80755551 566.3172964 787.4726907 569.90626101 783.06640625 573.47265625 C777.55322633 578.01664021 772.19145611 582.73650753 766.80664062 587.43115234 C763.88397627 589.96913088 760.94286883 592.48550209 758 595 L 609 595 C610.75838963 590.1253532 613.24633299 585.70734331 615.75 581.1875 C616.23098145 580.31585205 616.71196289 579.4442041 617.20751953 578.54614258 C621.57219576 570.68264301 626.09796024 562.91663311 630.65185547 555.16162109 C634.80162938 548.0864665 638.86047411 540.9651536 642.875 533.8125 C646.80793571 526.80855348 650.80184913 519.88387468 655.12109375 513.109375 C657.33756593 509.44136698 659.36890711 505.68995938 661.40942383 501.921875 C663.92904474 497.29335266 666.52692737 492.70981054 669.125 488.125 C669.68848145 487.12960205 670.25196289 486.1342041 670.83251953 485.10864258 C679.59523126 469.64092443 688.44223063 454.22315506 697.34082031 438.83325195 C702.18609977 430.44129277 706.96847309 422.01518301 711.70092773 413.55908203 C714.33741715 408.86500236 717.03935937 404.26415302 720.01513672 399.77587891 C721.87423544 396.42360223 722.1979825 393.03510476 722.3125 389.25 C722.36857422 388.05117188 722.36857422 388.05117188 722.42578125 386.828125 C721.18218647 378.56791749 715.74654904 373.09556052 710 367.4375 C708.93265625 366.33438477 708.93265625 366.33438477 707.84375 365.20898438 C707.1528125 364.51998047 706.461875 363.83097656 705.75 363.12109375 C704.81414062 362.18414673 704.81414062 362.18414673 703.859375 361.22827148 L 702 361 C711.22252537 364.7069258 719.58272311 371.14874538 727.79172311 376.66477539 C736.18534015 382.30460629 744.63547704 387.85525826 753.09547704 393.39525826 L 894.9375 434 C905.07536858 440.78824697 915.3130937 447.4266963 925.625 453.9375 C930.2711397 456.88965208 934.84812625 459.93398386 939.41870117 462.99110352 C944.62791051 466.48788694 949.86860169 469.91444435 955.11743164 473.34125977 C957.89809728 475.15694649 960.676202 476.97879963 963.45320129 478.79888245 C964.01134018 479.16310593 964.56947906 479.52732941 965.14453125 479.90046875 C965.70544968 480.27279892 966.2663681 480.64012909 966.84428406 481.01631775 C970.31128067 483.28664334 973.78934863 485.53513453 977.2759552 487.77571289 C978.98028169 488.87851947 980.68045936 489.98521101 982.37915039 491.09931641 C984.50793428 492.4642859 986.64366036 493.83985507 988.78686523 495.20724609 C989.73634033 495.82543457 990.69 496.44 991.66 497.08 C992.5 497.62 993.34 498.17 994.21 498.72 C994.8 499.27 995.39 499.82 996 500.38 L 996 504.55 C995.754276 505.237407 993.535156 508.494531 991.884766 510.930195 C991.283418 511.800244 990.68207 512.670291 990.0625 513.5625 C989.135342 514.926899 989.135342 514.926899 988.189453 516.333711 C986.847953 518.299907 985.502228 520.270659 984.152832 522.238887 C981.924949 525.489504 979.708737 528.747596 977.5 532 C974.61 536.27 971.71 540.52 968.81 544.77 C965.51 549.62 962.24 554.49 959 559.38 C959.772148 559.665117 960.544297 559.950234 961.339844 560.243281 L 966.5625 563.5625 C968.75 565.6 968.75 565.6 970.875 565.242188 C973.678633 564.104685 975.363173 562.462995 977.5625 560.375 C981.117959 557.079633 984.722569 553.926623 988.5 550.875 C992.11847 547.953671 995.624697 544.954025 999.0625 541.8125 C1003.08 538.15 1007.24 534.761094 1011.5 531.4 C1014.93 528.618634 1018.17 525.637397 1021.43 522.65625 C1024.06 520.322971 1026.76 518.085367 1029.5 515.875 C1033.1 512.97 1036.58 509.99 1040 506.875 C1044.32 502.94 1048.8 499.24 1053.35 495.56 C1055.79 493.55 1058.15 491.49 1060.5 489.375 C1077.79 473.896598 1096.69 460.197647 1116 447.375 C1117.2039 446.565825 1117.2039 446.565825 1118.43213 445.74793 C1130.23 437.868866 1142.28 430.620656 1154.66 423.6875 C1156.76 422.506896 1158.86 421.307281 1160.94 420.1 C1170.99 414.252076 1181.18 408.687908 1192.06 404.54375 C1194.50116 403.583648 1196.90585 402.572391 1199.3125 401.54375 C1207.98 397.81 1216.61 394.33 1225.61 391.49 C1227.95 390.723113 1230.26 389.877318 1232.55 388.96 C1238.55 386.68 1244.82 385.35011 1251.06 383.88 C1252.37021 383.568679 1253.67791 383.257318 1254.9856 382.94592 C1272.13 378.89 1288.1 376.1978 1305.75 376.19 C1307.02 376.180254 1308.29 376.16 1309.59 376.15 C1318.23 376.14 1326.49 376.92 1335 378.375 C1335.7309 378.5 1336.4618 378.625 1337.21484 378.75021 C1355.41 381.9 1370.94 390.355676 1384 403.375 C1384.6123 403.9609 1385.22461 404.55018 1385.85547 405.15625 C1394.3845 414.037335 1400.64315 426.626818 1404 438.375 C1404.44473 439.773613 1404.44473 439.773613 1404.89844 441.1875 C1392.12841 488.221218 1415.95147 542.06624 1438.6875 582.1875 C1446.33144 595.442877 1454.83245 608.000633 1463.8 620.375 C1464.25746 621.011426 1464.71509 621.649129 1465.18623 622.301882 C1471.42802 630.890833 1478.13927 639.122673 1484.806 647.38042 C1487.91002 645.851391 1490.86061 644.176391 1493.8125 642.375 C1493.17258 638.983693 1491.86857 636.651307 1489.96875 633.771729 C1489.38573 632.881372 1488.80271 631.991015 1488.20215 631.071045 C1487.57841 629.122421 1486.95467 627.17381 1486.3125 625.21875 C1480.64137 619.432617 1475.42438 610.582153 1470.75 601.25 C1470.10664 599.964969 1469.45336 598.685031 1468.7915 597.412109 C1466.40695 592.793353 1464.49206 588.151172 1462.8125 583.25 C1462.55581 582.521172 1462.29913 581.792344 1462.03516 581.041016 C1457.4 567.53107 1454.61107 555.1511 1454.5 540.8125 C1454.4715 539.610512 1454.4425 538.412172 1454.41061 537.17233 C1454.30603 522.435274 1458.80377 508.385105 1469.0625 497.5625 C1485.6766 482.046094 1505.91845 481.791557 1527.42188 482.238281 C1533.80104 482.503117 1539.66311 483.638656 1545.8125 485.375 C1547.29828 485.761048 1548.78406 486.14711 1550.28125 486.513672 C1559.12724 488.795556 1567.48123 491.597784 1575.8125 495.375 C1577.27802 496.00977 1578.74354 496.644557 1580.21875 497.276367 C1601.04351 506.294452 1620.19897 517.382033 1638.8125 530.328125 C1639.49369 530.8 1640.16337 531.267334 1640.86016 531.750163 C1660.75 545.64 1679.7753 561.21822 1696.8125 578.4375 C1695.78267 578.792285 1695.78267 578.792285 1694.73173 579.155715 C1691.22997 580.687515 1688.19964 582.724458 1685.0625 584.875 C1683.7145 585.8 1682.3524 586.714656 1681 587.625 C1680.30547 588.094551 1679.61094 588.564102 1678.89252 589.044049 C1675.61741 591.242593 1672.31215 593.372571 1669 595.5 C1661.53531 600.312335 1654.10034 605.142323 1646.6875 610 L 1575 610 C1562.11217 601.681641 1549.27744 593.284222 1536.45322 584.869019 C1535.78652 584.431836 1535.11982 583.994645 1534.43262 583.543457 C1526.54633 578.378096 1518.70208 573.175317 1510.86255 567.953796 C1506.60634 565.114746 1502.3276 562.100311 1498.01563 559.34668 C1490.95372 554.814329 1483.96102 550.152504 1476.98438 545.484375 L 1450.48438 545 C1441.87424 539.238634 1433.25193 533.518603 1424.43359 528.081055 C1418.6133 524.492971 1412.9296 520.704237 1407.27344 516.882812 C1404.75059 515.185195 1402.22774 513.487578 1399.70874 511.808105 L 1397 511 C1393.38203 508.6 1389.7547 506.24 1386.075 503.925 C1378.73039 499.310313 1371.63683 494.310313 1364.5125 489.375 L 1365 481 C1368.01276 478.614686 1370.98724 476.235314 1373.875 473.7125 C1385.95267 463.204685 1396.84137 460.842995 1412.525 461.8125 C1422.34002 462.964551 1431.91612 466.984025 1441.2625 470.134316 L 1453.3125 474.1875 C1454.48406 474.58022 1454.48406 474.58022 1455.67188 474.981445 C1461.35368 476.88147 1467.04237 478.721495 1472.76172 480.49609375 L 1496.328125 488 C1502.3023 490.00401 1508.27647 492.00803 1514.26189 494.01053 C1514.91264 494.22818 1515.56847 494.44857 1516.23682 494.67383 C1523.57605 497.12423 1530.91528 499.54923 1538.3125 501.83125 C1543.36195 503.383173 1548.32631 505.083163 1553.28438 506.927344 C1556.19203 507.970119 1559.10656 508.8809 1562.06738 509.773193 C1570.45 512.33 1578.7 515.24 1586.974 518.15 L 1606.526 527.24 C1614.28 530.82 1618.63 531.06 1626.241 533.2 C1636.92 536.21 1647.61 539.93 1658.494 543.18 L 1692.706 555 C1704.12 558.41 1715.37 562.24 1726.627 566.13 L 1759.764 579 C1774.52 583.39 1789.05 588.48 1803.61 593.49 L 1836.427 610 Z" fill="#F7E7CE" />
  <path d="M745 416 C745 419 745 419 743.42578125 420.97265625 C742.37970703 422.00712891 742.37970703 422.00712891 741.3125 423.0625 C740.62800781 423.75472656 739.94351563 424.44695312 739.23828125 425.16015625 C736.90524367 427.07788871 734.84580411 428.03810824 732 429 C735.42661784 424.28840047 739.59518716 420.74963472 744 417 C744.33 416.67 744.66 416.34 745 416 Z " fill="transparent" />
  <path d="M605 725 C605.66 725.33 606.32 725.66 607 726 C604.69 728.64 602.38 731.28 600 734 C599.01 733.34 598.02 732.68 597 732 C599.64 729.69 602.28 727.38 605 725 Z " fill="transparent" />
  <path d="M653 684 C653.66 684.66 654.32 685.32 655 686 C654.03 688.31 651.06 690.62 648 693 C647.34 692.67 646.68 692.34 646 692 C648.97 689.36 651.94 686.72 653 684 Z " fill="transparent" />
  <path d="M758 405 C758.66 405.33 759.32 405.66 760 406 C757.69 408.31 755.38 410.62 753 413 C752.01 412.33 751.02 411.67 750 411 C752.64 408.69 755.28 406.38 758 405 Z " fill="transparent" />
</svg>
